<svg width="200" height="200" viewBox="0 0 200 200" fill="none" xmlns="http://www.w3.org/2000/svg">
	<rect width="200" height="200" rx="20" fill="white" />
	<line x1="163.224" y1="142.768" x2="137.768" y2="168.224" stroke="white" stroke-width="5" />
	<line x1="156.224" y1="135.768" x2="130.768" y2="161.224" stroke="white" stroke-width="5" />
	<path
		d="M128.348 134H100.751C100.329 133.999 99.9158 133.878 99.5591 133.652C99.2024 133.426 98.9169 133.104 98.7353 132.723L59.7145 51.12H43.2057C42.6116 51.12 42.0419 50.884 41.6218 50.4639C41.2017 50.0438 40.9657 49.4741 40.9657 48.88V24.24C40.9657 23.6459 41.2017 23.0762 41.6218 22.6561C42.0419 22.236 42.6116 22 43.2057 22H77.7017C78.1239 22.0012 78.5372 22.1217 78.8939 22.3476C79.2506 22.5735 79.5362 22.8956 79.7177 23.2768L118.559 104.88H128.348C128.942 104.88 129.512 105.116 129.932 105.536C130.352 105.956 130.588 106.526 130.588 107.12V131.76C130.588 132.354 130.352 132.924 129.932 133.344C129.512 133.764 128.942 134 128.348 134ZM102.163 129.52H126.108V109.36H117.148C116.726 109.359 116.313 109.238 115.956 109.012C115.599 108.786 115.314 108.464 115.132 108.083L76.2905 26.48H45.4681V46.64H61.1481C61.5703 46.6412 61.9836 46.7617 62.3403 46.9876C62.697 47.2135 62.9826 47.5356 63.1641 47.9168L102.163 129.52Z"
		fill="black"
		stroke="black"
		stroke-width="3"
	/>
	<path
		d="M54.3833 134H25.2633C24.8827 134.001 24.5081 133.904 24.1749 133.72C23.8418 133.536 23.5611 133.27 23.3593 132.947C23.1454 132.617 23.0225 132.235 23.0028 131.842C22.9831 131.449 23.0675 131.057 23.2473 130.707L53.7113 67.0687C53.8929 66.6876 54.1785 66.3654 54.5352 66.1395C54.8919 65.9136 55.3051 65.7931 55.7273 65.7919V65.7919C56.1472 65.7911 56.5588 65.9083 56.9152 66.13C57.2717 66.3518 57.5586 66.6693 57.7433 67.0463L72.3257 97.0399C72.4725 97.3438 72.5488 97.6769 72.5488 98.0143C72.5488 98.3518 72.4725 98.6849 72.3257 98.9887L56.4217 132.589C56.2586 132.999 55.9782 133.351 55.6156 133.602C55.253 133.853 54.8243 133.992 54.3833 134ZM28.8473 129.52H52.9721L67.8233 98.1599L55.7497 73.1839L28.8473 129.52Z"
		fill="black"
		stroke="black"
		stroke-width="3"
	/>
	<path
		d="M92.008 179V147.512H104.552V179H92.008ZM104.552 161.976L98.728 156.792C100.349 153.379 102.227 150.883 104.36 149.304C106.536 147.683 109.245 146.872 112.488 146.872C113.939 146.872 115.176 147.043 116.2 147.384C117.267 147.725 118.12 148.216 118.76 148.856L111.72 158.84C111.421 158.499 110.973 158.221 110.376 158.008C109.821 157.752 109.16 157.624 108.392 157.624C107.112 157.624 106.152 158.008 105.512 158.776C104.872 159.501 104.552 160.568 104.552 161.976ZM133.265 179.64C130.15 179.64 127.42 178.936 125.073 177.528C122.769 176.12 120.956 174.2 119.633 171.768C118.353 169.293 117.713 166.456 117.713 163.256C117.713 160.056 118.353 157.219 119.633 154.744C120.956 152.269 122.769 150.349 125.073 148.984C127.42 147.576 130.15 146.872 133.265 146.872C135.142 146.872 136.913 147.192 138.577 147.832C140.241 148.429 141.649 149.283 142.801 150.392C143.996 151.501 144.742 152.781 145.041 154.232V171.64C144.742 173.091 143.996 174.435 142.801 175.672C141.649 176.867 140.241 177.827 138.577 178.552C136.913 179.277 135.142 179.64 133.265 179.64ZM135.569 168.632C136.636 168.632 137.553 168.419 138.321 167.992C139.089 167.523 139.686 166.883 140.113 166.072C140.582 165.261 140.817 164.323 140.817 163.256C140.817 162.189 140.604 161.272 140.177 160.504C139.75 159.693 139.132 159.053 138.321 158.584C137.553 158.115 136.657 157.88 135.633 157.88C134.609 157.88 133.692 158.115 132.881 158.584C132.113 159.053 131.494 159.693 131.025 160.504C130.556 161.315 130.321 162.232 130.321 163.256C130.321 164.28 130.534 165.197 130.961 166.008C131.43 166.819 132.07 167.459 132.881 167.928C133.692 168.397 134.588 168.632 135.569 168.632ZM152.657 179H140.433V170.552L142.161 162.872L140.113 155.256V132.152H152.657V179ZM158.696 179V147.512H171.24V179H158.696ZM171.24 161.976L165.416 156.792C167.037 153.379 168.914 150.883 171.048 149.304C173.224 147.683 175.933 146.872 179.176 146.872C180.626 146.872 181.864 147.043 182.888 147.384C183.954 147.725 184.808 148.216 185.448 148.856L178.408 158.84C178.109 158.499 177.661 158.221 177.064 158.008C176.509 157.752 175.848 157.624 175.08 157.624C173.8 157.624 172.84 158.008 172.2 158.776C171.56 159.501 171.24 160.568 171.24 161.976Z"
		fill="black"
	/>
</svg>
